<svg width="20" height="20" viewBox="0 0 20 20" fill="none" xmlns="http://www.w3.org/2000/svg">
<g clip-path="url(#clip0_2893_198985)">
<path d="M8.04075 13.4039L5.95912 10.2978C5.70197 9.91408 5.78769 9.40387 6.17136 9.15081C6.55503 8.89775 7.06524 8.97939 7.3183 9.36306L8.84891 11.6202L12.7551 7.71408C13.0857 7.38347 13.6285 7.37123 13.9591 7.70592C14.2979 8.0447 14.2938 8.5549 13.9551 8.89367L9.3183 13.4896C9.18361 13.657 8.53054 14.0121 8.04075 13.4039Z" fill="#5381C7"/>
<path fill-rule="evenodd" clip-rule="evenodd" d="M10 20C4.46939 20 0 15.5306 0 10C0 9.66246 0.0166481 9.32886 0.0491695 9H1.72092C1.6815 9.32794 1.66122 9.66166 1.66122 10C1.66122 14.5959 5.40408 18.3388 10 18.3388C14.5959 18.3388 18.3388 14.5959 18.3388 10C18.3388 5.40408 14.5959 1.66122 10 1.66122C9.66166 1.66122 9.32794 1.6815 9 1.72092V0.0491695C9.32886 0.0166481 9.66246 0 10 0C15.5306 0 20 4.46939 20 10C20 15.5306 15.5306 20 10 20Z" fill="#5C81C2"/>
</g>
<defs>
<clipPath id="clip0_2893_198985">
<rect width="20" height="20" fill="white"/>
</clipPath>
</defs>
</svg>
