<svg xmlns="http://www.w3.org/2000/svg" style="display: none;">
    
    <symbol id="icon-waves" width="20" height="18" viewBox="0 0 20 18" fill="none" xmlns="http://www.w3.org/2000/svg">
        <path fill-rule="evenodd" clip-rule="evenodd" d="M1.23778 16.9098C3.97271 14.1804 6.72961 14.9229 9.76106 16.5791C11.2666 17.4015 12.9317 18 14.6254 18C16.577 18 18.2655 17.2036 19.7206 15.7753C20.0529 15.4492 20.0914 14.861 19.8214 14.4753C19.5588 14.1 19.0905 14.0382 18.7668 14.356C18.0518 15.0581 17.2402 15.5993 16.32 15.8998C14.2995 16.5595 12.2138 15.9119 10.3836 14.912C9.79614 14.5912 9.19841 14.2911 8.58516 14.0355C5.51247 12.7543 2.81877 12.9595 0.274458 15.4989C-0.0543234 15.8271 -0.0893969 16.4185 0.182624 16.8007C0.447818 17.1733 0.91676 17.2301 1.23778 16.9098ZM1.23778 3.64474C3.97245 0.915676 6.72987 1.65819 9.76106 3.31404C11.2664 4.13634 12.9317 4.73512 14.6255 4.73482C16.5769 4.73468 18.2655 3.93887 19.7206 2.51054C20.053 2.18428 20.0916 1.59617 19.8214 1.21025C19.5589 0.835148 19.0904 0.772828 18.7668 1.0905C18.0516 1.79275 17.2398 2.33394 16.3193 2.63444C14.2989 3.29421 12.2137 2.64688 10.3836 1.64694C9.79694 1.32646 9.19975 1.0267 8.58744 0.7712C5.51395 -0.510731 2.81957 -0.306155 0.274458 2.23432C-0.0555282 2.56368 -0.0902002 3.1521 0.182624 3.53549C0.447818 3.90823 0.91676 3.96507 1.23778 3.64474ZM1.23778 10.2696C3.97245 7.54057 6.72987 8.28293 9.76106 9.93893C11.2664 10.7614 12.9317 11.3605 14.6255 11.3603C16.577 11.36 18.2655 10.5635 19.7206 9.13513C20.0529 8.80903 20.0914 8.22106 19.8214 7.83514C19.5589 7.46004 19.0905 7.39801 18.7668 7.71583C18.0518 8.41793 17.2402 8.95913 16.32 9.25948C14.2995 9.91924 12.2138 9.27147 10.3836 8.27153C9.7964 7.95076 9.19895 7.65085 8.58596 7.39535C5.51287 6.11386 2.8189 6.31933 0.274458 8.85921C-0.0555282 9.18857 -0.0902002 9.77714 0.182624 10.1605C0.447818 10.5333 0.91676 10.59 1.23778 10.2696Z" fill="#3D4044"/>
    </symbol>

    <symbol id="icon-pin" width="20" height="20" viewBox="0 0 20 20" fill="none" xmlns="http://www.w3.org/2000/svg">
        <path fill-rule="evenodd" clip-rule="evenodd" d="M0 10C0 4.46939 4.46939 0 10 0C15.5306 0 20 4.46939 20 10C20 15.5306 15.5306 20 10 20C4.46939 20 0 15.5306 0 10ZM1.66122 10C1.66122 14.5959 5.40408 18.3388 10 18.3388C14.5959 18.3388 18.3388 14.5959 18.3388 10C18.3388 5.40408 14.5959 1.66122 10 1.66122C5.40408 1.66122 1.66122 5.40408 1.66122 10Z" fill="#5C81C2"/>
        <path fill-rule="evenodd" clip-rule="evenodd" d="M11.7601 11.299L13.8831 13.4089C14.0183 13.5458 14.0183 13.7478 13.8831 13.8815C13.7479 14.0167 13.5442 14.0167 13.409 13.8815L11.2941 11.7633L9.29817 13.7641C9.2053 13.8912 8.95275 13.8977 8.82403 13.7641C8.1446 13.0554 7.9279 12.0517 8.2831 11.154L6.10143 8.9674C5.96619 8.83217 5.96619 8.6285 6.10143 8.49327L8.50306 6.10304C8.63829 5.96781 8.84196 5.96781 8.97719 6.10304L11.1426 8.27494C11.4293 8.156 11.734 8.10549 12.0387 8.10549C12.6823 8.10549 13.29 8.35966 13.7642 8.8175C13.8994 8.95274 13.8994 9.1564 13.7642 9.29164L11.7601 11.299ZM8.97719 11.2403C8.6725 11.8334 8.72301 12.5112 9.07821 13.0538L13.0196 9.10264C12.7328 8.89897 12.3939 8.79795 12.0224 8.79795C11.7356 8.79795 11.4652 8.86638 11.211 9.00162C11.0758 9.06842 10.9226 9.0342 10.8216 8.93319L8.74094 6.81506L6.81181 8.74907L8.90876 10.8509C9.01141 10.9519 9.0277 11.1051 8.97719 11.2403Z" fill="#5C81C2"/>
        <path d="M13.8831 13.4089L14.1499 13.1454L14.1474 13.143L13.8831 13.4089ZM11.7601 11.299L11.4947 11.034L11.2291 11.3L11.4957 11.5649L11.7601 11.299ZM13.8831 13.8815L13.6195 13.6147L13.6179 13.6163L13.8831 13.8815ZM13.409 13.8815L13.1436 14.1464L13.1438 14.1466L13.409 13.8815ZM11.2941 11.7633L11.5595 11.4984L11.294 11.2325L11.0286 11.4985L11.2941 11.7633ZM9.29817 13.7641L9.03268 13.4993L9.01237 13.5197L8.9954 13.5429L9.29817 13.7641ZM8.82403 13.7641L8.55332 14.0236L8.55397 14.0243L8.82403 13.7641ZM8.2831 11.154L8.6318 11.2919L8.72228 11.0632L8.54856 10.8891L8.2831 11.154ZM6.10143 8.9674L6.36689 8.70253L6.36659 8.70224L6.10143 8.9674ZM6.10143 8.49327L5.83689 8.22747L5.83626 8.2281L6.10143 8.49327ZM8.50306 6.10304L8.76759 6.36884L8.76822 6.36821L8.50306 6.10304ZM8.97719 6.10304L9.24275 5.83828L9.24235 5.83788L8.97719 6.10304ZM11.1426 8.27494L10.877 8.5397L11.0543 8.71753L11.2862 8.62132L11.1426 8.27494ZM13.7642 8.8175L14.0294 8.5523L14.0246 8.54774L13.7642 8.8175ZM13.7642 9.29164L13.499 9.02647L13.4988 9.02669L13.7642 9.29164ZM9.07821 13.0538L8.76446 13.2592L9.01747 13.6456L9.3437 13.3186L9.07821 13.0538ZM8.97719 11.2403L9.31075 11.4117L9.32079 11.3921L9.32849 11.3715L8.97719 11.2403ZM13.0196 9.10264L13.285 9.36747L13.5981 9.05361L13.2367 8.7969L13.0196 9.10264ZM11.211 9.00162L11.3772 9.33799L11.3871 9.33268L11.211 9.00162ZM10.8216 8.93319L10.5541 9.19598L10.5564 9.19835L10.8216 8.93319ZM8.74094 6.81506L9.00846 6.55227L8.74298 6.28201L8.47544 6.55023L8.74094 6.81506ZM6.81181 8.74907L6.54631 8.48424L6.28213 8.7491L6.54634 9.01393L6.81181 8.74907ZM8.90876 10.8509L8.64327 11.1158L8.64572 11.1182L8.90876 10.8509ZM14.1474 13.143L12.0244 11.033L11.4957 11.5649L13.6187 13.6749L14.1474 13.143ZM14.1466 14.1482C14.4322 13.8661 14.4276 13.4265 14.1498 13.1454L13.6163 13.6725C13.6175 13.6737 13.6156 13.6721 13.6134 13.6669C13.6112 13.6617 13.6095 13.6547 13.6095 13.6464C13.6095 13.6382 13.6112 13.6304 13.6139 13.6241C13.6152 13.6211 13.6166 13.6187 13.6177 13.617C13.6189 13.6154 13.6196 13.6146 13.6195 13.6147L14.1466 14.1482ZM13.1438 14.1466C13.4255 14.4283 13.8666 14.4283 14.1483 14.1466L13.6179 13.6163C13.6177 13.6166 13.62 13.6142 13.6257 13.6118C13.6312 13.6095 13.6383 13.6079 13.646 13.6079C13.6538 13.6079 13.6608 13.6095 13.6664 13.6118C13.672 13.6142 13.6744 13.6166 13.6741 13.6163L13.1438 14.1466ZM11.0287 12.0283L13.1436 14.1464L13.6743 13.6165L11.5595 11.4984L11.0287 12.0283ZM9.56366 14.029L11.5596 12.0282L11.0286 11.4985L9.03268 13.4993L9.56366 14.029ZM8.55397 14.0243C8.70394 14.18 8.9063 14.2384 9.0779 14.2369C9.24277 14.2354 9.46197 14.1756 9.60094 13.9854L8.9954 13.5429C9.01942 13.51 9.04545 13.496 9.05687 13.4912C9.06825 13.4864 9.07318 13.4869 9.07118 13.4869C9.06958 13.4869 9.06896 13.4865 9.07089 13.4872C9.07308 13.488 9.08261 13.492 9.09409 13.504L8.55397 14.0243ZM7.9344 11.016C7.52247 12.0572 7.77778 13.2146 8.55333 14.0236L9.09474 13.5046C8.51142 12.8961 8.33333 12.0463 8.6318 11.2919L7.9344 11.016ZM5.83596 9.23227L8.01763 11.4188L8.54856 10.8891L6.36689 8.70253L5.83596 9.23227ZM5.83626 8.2281C5.55458 8.50978 5.55458 8.95089 5.83626 9.23257L6.36659 8.70224C6.36631 8.70196 6.36869 8.70434 6.37107 8.71C6.3734 8.71555 6.375 8.72257 6.375 8.73033C6.375 8.7381 6.3734 8.74512 6.37107 8.75067C6.36869 8.75632 6.36631 8.75871 6.36659 8.75843L5.83626 8.2281ZM8.23852 5.83725L5.83689 8.22747L6.36596 8.75906L8.76759 6.36884L8.23852 5.83725ZM9.24235 5.83788C8.96067 5.5562 8.51957 5.5562 8.23789 5.83788L8.76822 6.36821C8.7685 6.36793 8.76611 6.37031 8.76046 6.37269C8.7549 6.37502 8.74789 6.37662 8.74012 6.37662C8.73235 6.37662 8.72534 6.37502 8.71978 6.37269C8.71413 6.37031 8.71174 6.36793 8.71202 6.36821L9.24235 5.83788ZM11.4081 8.01017L9.24275 5.83828L8.71163 6.36781L10.877 8.5397L11.4081 8.01017ZM12.0387 7.73049C11.6929 7.73049 11.3382 7.78782 10.9989 7.92855L11.2862 8.62132C11.5205 8.52417 11.7752 8.48049 12.0387 8.48049V7.73049ZM14.0246 8.54774C13.484 8.02567 12.7841 7.73049 12.0387 7.73049V8.48049C12.5805 8.48049 13.0961 8.69366 13.5037 9.08726L14.0246 8.54774ZM14.0293 9.5568C14.311 9.27512 14.311 8.83402 14.0293 8.55234L13.499 9.08267C13.4993 9.08295 13.4969 9.08056 13.4945 9.07491C13.4922 9.06935 13.4906 9.06234 13.4906 9.05457C13.4906 9.0468 13.4922 9.03979 13.4945 9.03423C13.4969 9.02858 13.4993 9.02619 13.499 9.02647L14.0293 9.5568ZM12.0255 11.5639L14.0295 9.55659L13.4988 9.02669L11.4947 11.034L12.0255 11.5639ZM9.39196 12.8484C9.10804 12.4147 9.06987 11.8805 9.31075 11.4117L8.64363 11.069C8.27514 11.7862 8.33799 12.6077 8.76446 13.2592L9.39196 12.8484ZM12.7541 8.8378L8.81271 12.7889L9.3437 13.3186L13.285 9.36747L12.7541 8.8378ZM12.0224 9.17295C12.3236 9.17295 12.5849 9.25392 12.8024 9.40837L13.2367 8.7969C12.8806 8.54402 12.4642 8.42295 12.0224 8.42295V9.17295ZM11.3871 9.33268C11.588 9.22583 11.7981 9.17295 12.0224 9.17295V8.42295C11.6732 8.42295 11.3424 8.50694 11.0349 8.67056L11.3871 9.33268ZM10.5564 9.19835C10.7606 9.40256 11.0849 9.48218 11.3771 9.33783L11.0449 8.6654C11.048 8.66387 11.0526 8.66227 11.0583 8.66153C11.0638 8.6608 11.0689 8.66106 11.0732 8.66187C11.0814 8.66343 11.0855 8.66672 11.0868 8.66802L10.5564 9.19835ZM8.47342 7.07785L10.5541 9.19597L11.0891 8.6704L9.00846 6.55227L8.47342 7.07785ZM7.07731 9.0139L9.00644 7.07989L8.47544 6.55023L6.54631 8.48424L7.07731 9.0139ZM9.17423 10.586L7.07729 8.48422L6.54634 9.01393L8.64328 11.1158L9.17423 10.586ZM9.32849 11.3715C9.41698 11.1346 9.40537 10.8135 9.17179 10.5836L8.64572 11.1182C8.64078 11.1133 8.63663 11.1075 8.63372 11.1016C8.63094 11.096 8.63011 11.092 8.6299 11.0906C8.62971 11.0894 8.63005 11.0906 8.62964 11.0943C8.62922 11.0979 8.62815 11.1031 8.62589 11.1091L9.32849 11.3715Z" fill="#5C81C2"/>
    </symbol>

    <symbol id="icon-play" width="18" height="18" viewBox="0 0 18 18" fill="none" xmlns="http://www.w3.org/2000/svg">
        <path fill-rule="evenodd" clip-rule="evenodd" d="M0 9C0 4.02245 4.02245 0 9 0C13.9776 0 18 4.02245 18 9C18 13.9776 13.9776 18 9 18C4.02245 18 0 13.9776 0 9ZM1.4951 9C1.4951 13.1363 4.86367 16.5049 9 16.5049C13.1363 16.5049 16.5049 13.1363 16.5049 9C16.5049 4.86367 13.1363 1.4951 9 1.4951C4.86367 1.4951 1.4951 4.86367 1.4951 9Z" fill="#5C81C2"/>
        <path fill-rule="evenodd" clip-rule="evenodd" d="M7.69959 4.67265L12.9049 8.42694C13.3384 8.8604 13.3053 9.25347 12.9086 9.6502L7.69959 13.4045C7.22204 13.7241 6.51306 13.5808 6.51306 12.791V5.24571C6.51306 4.45224 7.28082 4.39347 7.69959 4.67265ZM11.182 9L8.00449 6.7004V11.2996L11.182 9Z" fill="#5C81C2"/>
    </symbol>
    <symbol id="icon-done" width="20" height="20" viewBox="0 0 20 20" fill="none" xmlns="http://www.w3.org/2000/svg">
        <g clip-path="url(#clip0_2893_198985)">
            <path d="M8.04075 13.4039L5.95912 10.2978C5.70197 9.91408 5.78769 9.40387 6.17136 9.15081C6.55503 8.89775 7.06524 8.97939 7.3183 9.36306L8.84891 11.6202L12.7551 7.71408C13.0857 7.38347 13.6285 7.37123 13.9591 7.70592C14.2979 8.0447 14.2938 8.5549 13.9551 8.89367L9.3183 13.4896C9.18361 13.657 8.53054 14.0121 8.04075 13.4039Z" fill="#5381C7"/>
            <path fill-rule="evenodd" clip-rule="evenodd" d="M10 20C4.46939 20 0 15.5306 0 10C0 9.66246 0.0166481 9.32886 0.0491695 9H1.72092C1.6815 9.32794 1.66122 9.66166 1.66122 10C1.66122 14.5959 5.40408 18.3388 10 18.3388C14.5959 18.3388 18.3388 14.5959 18.3388 10C18.3388 5.40408 14.5959 1.66122 10 1.66122C9.66166 1.66122 9.32794 1.6815 9 1.72092V0.0491695C9.32886 0.0166481 9.66246 0 10 0C15.5306 0 20 4.46939 20 10C20 15.5306 15.5306 20 10 20Z" fill="#5C81C2"/>
        </g>
        <defs>
            <clipPath id="clip0_2893_198985">
                <rect width="20" height="20" fill="white"/>
            </clipPath>
        </defs>
    </symbol>

    <symbol id="icon-check" width="20" height="20" viewBox="0 0 20 20" fill="none" xmlns="http://www.w3.org/2000/svg">
        <path fill-rule="evenodd" clip-rule="evenodd" d="M0 10C0 15.5306 4.46939 20 10 20C15.5306 20 20 15.5306 20 10C20 4.46939 15.5306 0 10 0C4.46939 0 0 4.46939 0 10ZM1.66122 10C1.66122 5.40408 5.40408 1.66122 10 1.66122C14.5959 1.66122 18.3388 5.40408 18.3388 10C18.3388 14.5959 14.5959 18.3388 10 18.3388C5.40408 18.3388 1.66122 14.5959 1.66122 10Z" fill="#5C81C2"/>
        <path d="M8.04087 13.4041L5.95924 10.298C5.70209 9.91429 5.78781 9.40409 6.17148 9.15103C6.55515 8.89797 7.06536 8.9796 7.31842 9.36327L8.84903 11.6204L12.7552 7.71429C13.0858 7.38368 13.6286 7.37144 13.9592 7.70613C14.298 8.04491 14.2939 8.55511 13.9552 8.89388L9.31842 13.4898C9.18373 13.6572 8.53066 14.0123 8.04087 13.4041Z" fill="#5381C7"/>
    </symbol>

    <symbol id="icon-pen" width="14" height="15" viewBox="0 0 14 15" fill="none" xmlns="http://www.w3.org/2000/svg">
        <g opacity="0.5">
            <path fill-rule="evenodd" clip-rule="evenodd" d="M0.0254322 13.5583L1.07109 8.64522C1.07109 8.52226 1.13139 8.43124 1.22058 8.34044L8.72695 0.680677C9.30169 0.00937209 10.8616 -0.436206 11.9558 0.680677L13.332 2.08492C14.2226 2.9935 14.2226 4.47093 13.332 5.37971L5.82563 13.0393C5.76513 13.101 5.67614 13.1625 5.55533 13.1918L0.7122 14.3203C0.421998 14.3645 -0.124063 14.1768 0.0254322 13.5583ZM12.496 4.52669C12.9441 4.06946 12.9441 3.3659 12.496 2.90867L11.1199 1.50442C10.6834 1.05885 9.97089 1.05885 9.53422 1.50442L2.68563 8.49267H3.46402C3.79159 8.49267 4.06159 8.76849 4.06159 9.10245V10.108H5.04705C5.37462 10.108 5.64452 10.3835 5.64452 10.7178V11.4828L12.496 4.52669ZM4.4524 12.1862V11.3305H3.46695C2.94978 11.3803 2.86937 10.8467 2.86937 10.7208V9.71222H2.03079L1.34109 12.9163L4.4524 12.1862Z" fill="#3D4044"/>
        </g>
    </symbol>

    <symbol id="icon-bin" width="14" height="15" viewBox="0 0 14 15" fill="none" xmlns="http://www.w3.org/2000/svg">
        <path opacity="0.495745" fill-rule="evenodd" clip-rule="evenodd" d="M8.33 12.6923C8.63849 12.6923 8.89212 12.4274 8.89944 12.1136L9.065 4.99648C9.07233 4.67786 8.82342 4.40967 8.50874 4.40225C8.18919 4.39747 7.93312 4.64489 7.92579 4.96335L7.76023 12.0874C7.75274 12.4058 8.00165 12.6923 8.31633 12.6923H8.33ZM5.64509 12.6923H5.65877C5.97344 12.6923 6.22235 12.3859 6.21502 12.0673L6.04947 4.94077C6.04198 4.62214 5.78395 4.36187 5.46635 4.36896C5.15184 4.37637 4.90277 4.63632 4.91026 4.95495L5.07581 12.0966C5.08314 12.4104 5.3366 12.6923 5.64509 12.6923ZM5.37209 1.97802H8.62791V1.15385H5.37209V1.97802ZM14 2.63736C14 3.00148 13.7084 3.2967 13.3488 3.2967H0.651163C0.291558 3.2967 0 3.00148 0 2.63736C0 2.27324 0.291558 1.97802 0.651163 1.97802H4.23256V0.494505C4.23256 0.175879 4.4424 0 4.75707 0H9.24277C9.55744 0 9.76744 0.175879 9.76744 0.494505V1.97802H13.3488C13.7084 1.97802 14 2.27324 14 2.63736ZM12.2739 4.84418L11.7769 14.3754C11.7587 14.7255 11.473 15 11.1267 15H2.87326C2.527 15 2.2413 14.7255 2.22307 14.3754L1.72623 4.84418C1.70719 4.48055 1.98295 4.17017 2.34207 4.15104C2.70298 4.13341 3.00788 4.41115 3.02677 4.77462L3.49105 13.6813H10.509L10.9732 4.77462C10.9923 4.41099 11.3009 4.13456 11.6579 4.15104C12.017 4.17017 12.2928 4.48055 12.2739 4.84418Z" fill="#3D4044"/>
    </symbol>

    <symbol id="icon-priority" width="34" height="14" viewBox="0 0 34 14" fill="none" xmlns="http://www.w3.org/2000/svg">
        <path d="M20.6694 5.98792L17.0593 0H12.5358L12.5263 0.00559967L16.7021 6.9324L12.5448 13.8284H17.0812L20.6694 7.87664L21.2386 6.9324L20.6694 5.98792Z" fill="#E9A668"/>
        <path d="M26.9325 5.98792L23.3225 0H18.799L22.9653 6.9324L18.8079 13.8284H23.3444L26.9325 7.87664L27.5017 6.9324L26.9325 5.98792Z" fill="#E2954D"/>
        <path d="M33.1957 5.98792L29.5857 0H25.0621L25.0526 0.00559967L29.2285 6.9324L25.0711 13.8284H29.6075L33.1957 7.87664L33.7649 6.9324L33.1957 5.98792Z" fill="#9EA7B7"/>
        <path d="M14.9754 6.9324L14.4065 5.98792L10.7964 0H6.27288L6.26315 0.00559967L10.4392 6.9324L6.28163 13.8284H10.8183L14.4065 7.87664L14.9754 6.9324Z" fill="#4BB276"/>
        <path d="M8.7125 6.9324L8.14332 5.98792L4.53325 0H0.0097254L0 0.00559967L4.17584 6.9324L0.0184783 13.8284H4.55513L8.14332 7.87664L8.7125 6.9324Z" fill="#5FCE8D"/>
    </symbol>

    <symbol id="icon-plus" width="14" height="14" viewBox="0 0 14 14" fill="none" xmlns="http://www.w3.org/2000/svg">
        <path fill-rule="evenodd" clip-rule="evenodd" d="M13.6 6.4H8.2C7.9792 6.4 7.8 6.2208 7.8 6V0.4C7.8 0.1792 7.6208 0 7.4 0H6.6C6.3792 0 6.2 0.1792 6.2 0.4V6C6.2 6.2208 6.0208 6.4 5.8 6.4H0.4C0.1792 6.4 0 6.5792 0 6.8V7.6C0 7.8208 0.1792 8 0.4 8H5.8C6.0208 8 6.2 8.1792 6.2 8.4V13.6C6.2 13.8208 6.3792 14 6.6 14H7.4C7.6208 14 7.8 13.8208 7.8 13.6V8.4C7.8 8.1792 7.9792 8 8.2 8H13.6C13.8208 8 14 7.8208 14 7.6V6.8C14 6.5792 13.8208 6.4 13.6 6.4Z" fill="#FBFAF9"/>
    </symbol>

</svg>